/* XPM */
static char *a0abc08a631145689799d34b40f2a6a1[] = {
/* columns rows colors chars-per-pixel */
"16 16 123 2 ",
"   c #5C442C",
".  c #4F4436",
"X  c #504638",
"o  c #614521",
"O  c #634424",
"+  c #624925",
"@  c #634E28",
"#  c #714027",
"$  c #7B4525",
"%  c #7C4427",
"&  c #6D5223",
"*  c #6B583F",
"=  c #645A4D",
"-  c #645B50",
";  c #756143",
":  c #7F7972",
">  c #7E7C7B",
",  c #814B1E",
"<  c #824B1E",
"1  c #925F13",
"2  c #905A15",
"3  c #946A0E",
"4  c #97710C",
"5  c #9C770A",
"6  c #A67A0D",
"7  c #A77A0E",
"8  c #A46414",
"9  c #AE6F12",
"0  c #AE651F",
"q  c #B96A1F",
"w  c #8A4D22",
"e  c #8A4D23",
"r  c #9E5328",
"t  c #9E5428",
"y  c #A65823",
"u  c #A85822",
"i  c #AF5D25",
"p  c #AD5A2A",
"a  c #AE5A2A",
"s  c #B25C2A",
"d  c #B35C2A",
"f  c #AD6022",
"g  c #B66025",
"h  c #B46127",
"j  c #BB6724",
"k  c #BF6822",
"l  c #BB6824",
"z  c #BC6528",
"x  c #A37F2E",
"c  c #A16C32",
"v  c #A17F33",
"b  c #C36E1E",
"n  c #C8751B",
"m  c #C8771E",
"M  c #D17C1E",
"N  c #D17C1F",
"B  c #C36C25",
"V  c #CA7422",
"C  c #CB7422",
"Z  c #8D6444",
"A  c #8C6547",
"S  c #987C64",
"D  c #B28028",
"F  c #CA970C",
"G  c #D6980E",
"H  c #DA9F0A",
"J  c #DB9F0B",
"K  c #DE990F",
"L  c #C28711",
"P  c #D58F15",
"I  c #D88A15",
"U  c #D38118",
"Y  c #D3831C",
"T  c #D6841C",
"R  c #D88B19",
"E  c #DB8D19",
"W  c #D99112",
"Q  c #D89611",
"!  c #DF9616",
"~  c #DE9E10",
"^  c #E19715",
"/  c #E59F13",
"(  c #DEA20A",
")  c #E6A30E",
"_  c #E1A40E",
"`  c #E1A40F",
"'  c #E4A60D",
"]  c #E1A90C",
"[  c #E2AA0C",
"{  c #EAAB0D",
"}  c #E9AF0C",
"|  c #EDAE0F",
" . c #EAA610",
".. c #A78552",
"X. c #A58257",
"o. c #A38850",
"O. c #AA915E",
"+. c #A28362",
"@. c #A18264",
"#. c #AB8F60",
"$. c #A5946D",
"%. c #AB9E7F",
"&. c #888786",
"*. c #8E8A83",
"=. c #A39388",
"-. c #A79A8D",
";. c #B1A384",
":. c #AEA29A",
">. c #B2A69D",
",. c #B6ADA2",
"<. c #B8B0A3",
"1. c #C5BFB7",
"2. c #C0C0C1",
"3. c #C4C4C5",
"4. c #C6C5C4",
"5. c #CBC9C5",
"6. c #C8C8C7",
"7. c #CBCBCB",
"8. c #CDCBCA",
"9. c #CFD0D1",
"0. c #E1E2E3",
"q. c #E4E5E8",
"w. c None",
/* pixels */
"w.w.w.w.w.w.w.w.w.w.w.w.w.w.w.w.",
"w.w.w.w.w.w.w.5 5 w.w.w.w.w.w.w.",
"w.w.w.w.4 F [ } } [ F 4 w.w.w.w.",
"w.w.w.7 ` ' H H ( { | ` 7 w.w.w.",
"w.w.3 ~ ) v %.;.$.D G  .~ 3 w.w.",
"w.w.L / K O.q.<.1.8.o.Q / L w.w.",
"w.w.P ! W #.3.@ @ *.6.D ^ P w.w.",
"w.1 R E 9 ; &.X = + 6...I R 1 w.",
"w.2 Y T 8 * > . - o 4.X.U Y 2 w.",
"w.w.m M n +.2.  O : 7.c M m w.w.",
"w.w.0 C b +.0.-.,.9.S q C 0 w.w.",
"w.w.< l k Z :.>.=.A f B l < w.w.",
"w.w.w.e h i y y u h z h w w.w.w.",
"w.w.w.w.% t p d d p t $ w.w.w.w.",
"w.w.w.w.w.w.# % % # w.w.w.w.w.w.",
"w.w.w.w.w.w.w.w.w.w.w.w.w.w.w.w."
};
