/* XPM */
static char *e1b0eebfa7254d26cc650dd19667bf39[] = {
/* columns rows colors chars-per-pixel */
"32 32 179 2 ",
"   c #281D10",
".  c #2C2316",
"X  c #30291F",
"o  c #2D2C2A",
"O  c #3C2F20",
"+  c #402909",
"@  c #44310C",
"#  c #4D300C",
"$  c #51340D",
"%  c #543B0F",
"&  c #593A0D",
"*  c #472D18",
"=  c #4C3015",
"-  c #4D361A",
";  c #543310",
":  c #5D3F12",
">  c #643D0F",
",  c #653E13",
"<  c #6F3D16",
"1  c #693D1C",
"2  c #4A2F21",
"3  c #473025",
"4  c #4A3022",
"5  c #533722",
"6  c #533D2B",
"7  c #423C35",
"8  c #413F3E",
"9  c #523F31",
"0  c #643922",
"q  c #6C430C",
"w  c #6A480E",
"e  c #774C0F",
"r  c #7E4F0F",
"t  c #6A510A",
"y  c #71520C",
"u  c #7B510E",
"i  c #7A590F",
"p  c #6A4F15",
"a  c #72471A",
"s  c #7A441E",
"d  c #7F4A1A",
"f  c #6A521B",
"g  c #584221",
"h  c #54422C",
"j  c #534531",
"k  c #59473A",
"l  c #564B3B",
"z  c #5A4C39",
"x  c #68492A",
"c  c #774022",
"v  c #794222",
"b  c #6D5625",
"n  c #6E5826",
"m  c #63502B",
"M  c #644E39",
"N  c #6E5834",
"B  c #4B4946",
"V  c #5C4F45",
"C  c #51504F",
"Z  c #58514A",
"A  c #5B5A5A",
"S  c #655444",
"D  c #675549",
"F  c #6A604E",
"G  c #736449",
"H  c #656056",
"J  c #6B6156",
"K  c #636262",
"L  c #696766",
"P  c #797060",
"I  c #7D7468",
"U  c #747372",
"Y  c #7F7A72",
"T  c #82560C",
"R  c #874F17",
"E  c #854C18",
"W  c #8F4F1C",
"Q  c #855214",
"!  c #8C5316",
"~  c #8B5D11",
"^  c #945A15",
"/  c #9A5F15",
"(  c #905118",
")  c #88630D",
"_  c #8C6A0A",
"`  c #97670F",
"'  c #98650B",
"]  c #9A6C0D",
"[  c #956511",
"{  c #9D6612",
"}  c #AE740D",
"|  c #A37C0A",
" . c #AD7C0A",
".. c #A56615",
"X. c #A66A14",
"o. c #AE651C",
"O. c #BA6E19",
"+. c #B37311",
"@. c #B87516",
"#. c #B87814",
"$. c #BD7519",
"%. c #864625",
"&. c #8D4825",
"*. c #9D5127",
"=. c #A05426",
"-. c #A65820",
";. c #A95A21",
":. c #AF5A2A",
">. c #B35F26",
",. c #B55E2A",
"<. c #AB6021",
"1. c #B66226",
"2. c #BB6527",
"3. c #BF6926",
"4. c #B96229",
"5. c #CA771F",
"6. c #CB781F",
"7. c #D37E1F",
"8. c #C36C25",
"9. c #C77123",
"0. c #CA7422",
"q. c #CE7A20",
"w. c #D17B20",
"e. c #817A74",
"r. c #AE840A",
"t. c #BA850D",
"y. c #BF8412",
"u. c #C3870E",
"i. c #C48A0E",
"p. c #C5930C",
"a. c #DA9C0E",
"s. c #CF8717",
"d. c #D08A13",
"f. c #D6821D",
"g. c #D8861C",
"h. c #DB8C1A",
"j. c #D39111",
"k. c #DD9417",
"l. c #DD9E10",
"z. c #DF9118",
"x. c #E29717",
"c. c #E19A14",
"v. c #DEA40E",
"b. c #E4A50E",
"n. c #E3AC0B",
"m. c #EBAC0E",
"M. c #EDB10C",
"N. c #F0B60B",
"B. c #E5A112",
"V. c #E9A610",
"C. c #EAA810",
"Z. c #82807E",
"A. c #848382",
"S. c #8F8E8D",
"D. c #918E8B",
"F. c #93908C",
"G. c #949494",
"H. c #96989A",
"J. c #9D9B99",
"K. c #A1A09F",
"L. c #9FA0A1",
"P. c #A5A5A5",
"I. c #AAA8A5",
"U. c #ABABAA",
"Y. c #B4B5B6",
"T. c #BCBCBC",
"R. c #C0C1C1",
"E. c #C7C8CA",
"W. c #CACACB",
"Q. c #CECED0",
"!. c #D4D5D6",
"~. c #D5D6D9",
"^. c #DADADB",
"/. c #DDDEE0",
"(. c #E4E5E6",
"). c #E9EAEC",
"_. c #F3F3F4",
"`. c #FEFEFE",
"'. c None",
/* pixels */
"'.'.'.'.'.'.'.'.'.'.'.'.'.'.'.'.'.'.'.'.'.'.'.'.'.'.'.'.'.'.'.'.",
"'.'.'.'.'.'.'.'.'.'.'.'.'.'.'.'.'.'.'.'.'.'.'.'.'.'.'.'.'.'.'.'.",
"'.'.'.'.'.'.'.'.'.'.'.'.'.'.'.'.'.'.'.'.'.'.'.'.'.'.'.'.'.'.'.'.",
"'.'.'.'.'.'.'.'.'.'.'.'.t _ | r.r.| _ t '.'.'.'.'.'.'.'.'.'.'.'.",
"'.'.'.'.'.'.'.'.'.'._ p.n.N.N.N.N.N.N.n.p._ '.'.'.'.'.'.'.'.'.'.",
"'.'.'.'.'.'.'.'.y p.M.M.M.M.M.M.M.M.M.M.M.m.p.y '.'.'.'.'.'.'.'.",
"'.'.'.'.'.'.'.) v.m.m.m.m.m.m.m.m.m.m.m.m.m.m.v.) '.'.'.'.'.'.'.",
"'.'.'.'.'.'.) b.m.m.n.b.b.b.b.b.V.m.m.m.m.m.m.m.b.) '.'.'.'.'.'.",
"'.'.'.'.'.y l.V.V.C.t.f n n n n f i  .a.B.V.b.m.C.l.y '.'.'.'.'.",
"'.'.'.'.@ i.V.B.B.V.] A.~.~.~.~.E.L.H w i.V.V.B.B.V.i.@ '.'.'.'.",
"'.'.'.'.) B.B.B.B.V.] J.`.`._._.`.`._.P.m i.B.B.B.B.B.) '.'.'.'.",
"'.'.'.'.y.c.l.c.c.c.] J.`.W.F G P I._.`.Y.b j.c.c.c.c.y.'.'.'.'.",
"'.'.'.w k.k.k.c.x.x.` J.`.U.& ' } % K (.`.D.[ k.k.x.k.k.w '.'.'.",
"'.'.'.~ k.k.k.k.x.x.` J.`.U.o z u l X e.`.^.N d.k.k.k.k.~ '.'.'.",
"'.'.'.{ k.h.z.h.s.#.u Z.~.S.. K 7 K : g Q.`.I +.k.z.h.z.{ '.'.'.",
"'.'.'.X.z.h.h.h.@.e $ C A.A + l G.j q $ P.`.S.{ h.h.h.z.X.'.'.'.",
"'.'.'...h.g.f.h.@.Q & A G.L # j H.h u & K.`.F./ g.g.g.h...'.'.'.",
"'.'.'./ f.f.f.f.5.^ > L U.U   A B A $ - R.`.e...f.f.f.g./ '.'.'.",
"'.'.'.Q w.7.w.7.7.f.( J.`.U.o Z > Z O J _.(.S O.7.7.7.7.R '.'.'.",
"'.'.'., q.w.q.q.6.6.! J.`.U.= R o.# 8 Q.`.I.a 5.7.6.6.6.q '.'.'.",
"'.'.'.'.o.0.0.0.0.0.! J.`.T.h x M e.~.`.Q.z o.0.0.0.q.<.'.'.'.'.",
"'.'.'.'.d 0.9.9.9.0.E J.`._.^.~.(.`.`.W.V ( 9.9.9.9.9.d '.'.'.'.",
"'.'.'.'.* <.8.8.8.9.E G._._._._.(.W.A.6 ( 8.8.8.8.9.<.* '.'.'.'.",
"'.'.'.'.'.1 2.8.3.3.W 9 D D D D k 5 < -.8.8.3.3.8.2.1 '.'.'.'.'.",
"'.'.'.'.'.'.v 2.3.2.1.;.-.-.-.-.-.>.2.2.2.2.4.3.2.v '.'.'.'.'.'.",
"'.'.'.'.'.'.'.v ,.4.4.4.4.4.4.4.4.4.4.4.4.4.4.1.v '.'.'.'.'.'.'.",
"'.'.'.'.'.'.'.'.0 =.4.,.,.,.,.,.,.,.,.,.,.,.=.0 '.'.'.'.'.'.'.'.",
"'.'.'.'.'.'.'.'.'.3 c *.:.,.,.,.,.,.,.:.*.c 4 '.'.'.'.'.'.'.'.'.",
"'.'.'.'.'.'.'.'.'.'.'.3 0 c %.&.&.%.c 0 3 '.'.'.'.'.'.'.'.'.'.'.",
"'.'.'.'.'.'.'.'.'.'.'.'.'.'.'.'.'.'.'.'.'.'.'.'.'.'.'.'.'.'.'.'.",
"'.'.'.'.'.'.'.'.'.'.'.'.'.'.'.'.'.'.'.'.'.'.'.'.'.'.'.'.'.'.'.'.",
"'.'.'.'.'.'.'.'.'.'.'.'.'.'.'.'.'.'.'.'.'.'.'.'.'.'.'.'.'.'.'.'."
};
