/* XPM */
static char *_3a269bf594a40408ad11231e0175208[] = {
/* columns rows colors chars-per-pixel */
"64 64 235 2 ",
"   c #010000",
".  c #0C0701",
"X  c #0E0A04",
"o  c #0D0C0B",
"O  c #140C05",
"+  c #190F03",
"@  c #110E0A",
"#  c #1C1204",
"$  c #14110B",
"%  c #1B140B",
"&  c #1E1808",
"*  c #0F0F10",
"=  c #151514",
"-  c #1B1611",
";  c #1E1914",
":  c #1D1C1C",
">  c #241506",
",  c #291705",
"<  c #261906",
"1  c #2D1A06",
"2  c #20160E",
"3  c #25190B",
"4  c #2B1C0A",
"5  c #331F06",
"6  c #3A1E0B",
"7  c #231A13",
"8  c #241D1A",
"9  c #2B1E18",
"0  c #2D2209",
"q  c #352305",
"w  c #3F2707",
"e  c #342807",
"r  c #3D2806",
"t  c #36230B",
"y  c #3C240B",
"u  c #3E2A0A",
"i  c #24201B",
"p  c #29221E",
"a  c #3D2315",
"s  c #362219",
"d  c #252424",
"f  c #292624",
"g  c #2B2927",
"h  c #2B2A2A",
"j  c #343434",
"k  c #383737",
"l  c #3C3C3D",
"z  c #442D05",
"x  c #43260A",
"c  c #42290B",
"v  c #4D2D0B",
"b  c #542E0D",
"n  c #4C3207",
"m  c #4A3907",
"M  c #4A3609",
"N  c #4F3B0A",
"B  c #57350D",
"V  c #5A340B",
"C  c #52390B",
"Z  c #5B380C",
"A  c #462617",
"S  c #462618",
"D  c #562E15",
"F  c #582F11",
"G  c #572D18",
"H  c #563213",
"J  c #5B3314",
"K  c #5B3118",
"L  c #643E0C",
"P  c #673E10",
"I  c #683C10",
"U  c #67341B",
"Y  c #68351B",
"T  c #743B1C",
"R  c #5E4809",
"E  c #644406",
"W  c #664805",
"Q  c #634208",
"!  c #6B450C",
"~  c #6A4C08",
"^  c #744A0D",
"/  c #7C4E0E",
"(  c #6D520A",
")  c #735707",
"_  c #70510A",
"`  c #7B510C",
"'  c #7E5E0B",
"]  c #6B4112",
"[  c #754415",
"{  c #794613",
"}  c #774B11",
"|  c #7D4D11",
" . c #75401A",
".. c #7B4319",
"X. c #7E5111",
"o. c #3F3F40",
"O. c #3F4040",
"+. c #424243",
"@. c #474849",
"#. c #4D4D4E",
"$. c #4F4F50",
"%. c #535354",
"&. c #565758",
"*. c #5A5B5C",
"=. c #5E5F61",
"-. c #636465",
";. c #666768",
":. c #676869",
">. c #6A6B6C",
",. c #6F7072",
"<. c #727273",
"1. c #767778",
"2. c #7A7A7B",
"3. c #85560E",
"4. c #815C0B",
"5. c #8A5C0D",
"6. c #814A14",
"7. c #81451C",
"8. c #865212",
"9. c #8A5413",
"0. c #8F501C",
"q. c #905516",
"w. c #945E13",
"e. c #9B5F16",
"r. c #94541B",
"t. c #9B5C19",
"y. c #A35C1D",
"u. c #8A6309",
"i. c #8E6A0B",
"p. c #93680D",
"a. c #9A6A0E",
"s. c #95710A",
"d. c #9D710B",
"f. c #9B6313",
"g. c #9C6910",
"h. c #A06C0F",
"j. c #A6750D",
"k. c #A8760F",
"l. c #A47C0B",
"z. c #A96617",
"x. c #A66C12",
"c. c #AB6F14",
"v. c #A7621B",
"b. c #AE631E",
"n. c #B26A1C",
"m. c #BB6D1E",
"M. c #AA7211",
"N. c #AF7910",
"B. c #B47217",
"V. c #BC7617",
"C. c #B77912",
"Z. c #BB7F12",
"A. c #BD741A",
"S. c #8D4723",
"D. c #8C4822",
"F. c #984E24",
"G. c #9D5520",
"H. c #A95B23",
"J. c #A45228",
"K. c #AE582A",
"L. c #B05F24",
"P. c #B45D2B",
"I. c #AC6021",
"U. c #B36224",
"Y. c #BB6527",
"T. c #BE6826",
"R. c #B76129",
"E. c #B96328",
"W. c #C17D15",
"Q. c #C3741E",
"!. c #C9771E",
"~. c #C37B18",
"^. c #CC791E",
"/. c #D27E1E",
"(. c #C26C24",
"). c #C67123",
"_. c #CA7422",
"`. c #CF7B20",
"'. c #D17C20",
"]. c #B4810D",
"[. c #BD870E",
"{. c #BF920B",
"}. c #C38C0F",
"|. c #C4910D",
" X c #CF950F",
".X c #D29C0C",
"XX c #D89B0F",
"oX c #C38213",
"OX c #CD8B13",
"+X c #CD801A",
"@X c #D48C16",
"#X c #D88C17",
"$X c #D5841C",
"%X c #D8871C",
"&X c #D58918",
"*X c #DB8C19",
"=X c #D79114",
"-X c #DD9416",
";X c #DD9C11",
":X c #DC9118",
">X c #E09716",
",X c #E29C14",
"<X c #DBA40D",
"1X c #DFA80D",
"2X c #E1A20F",
"3X c #E5AC0C",
"4X c #EBAC0E",
"5X c #EDB20C",
"6X c #F0B60B",
"7X c #E6A311",
"8X c #E8A510",
"9X c #E9A910",
"0X c #7E7F80",
"qX c #7F8081",
"wX c #838484",
"eX c #868788",
"rX c #878888",
"tX c #8B8B8C",
"yX c #949494",
"uX c #9B9B9C",
"iX c #A3A3A3",
"pX c #ABABAB",
"aX c #B5B5B5",
"sX c #B7B7B8",
"dX c #BBBCBC",
"fX c #BFBFC0",
"gX c #C4C4C4",
"hX c #CCCCCC",
"jX c #D5D5D5",
"kX c #DDDDDD",
"lX c #E4E4E4",
"zX c #EBEBEB",
"xX c #F5F5F5",
"cX c #FEFEFE",
"vX c None",
/* pixels */
"vXvXvXvXvXvXvXvXvXvXvXvXvXvXvXvXvXvXvXvXvXvXvXvXvXvXvXvXvXvXvXvXvXvXvXvXvXvXvXvXvXvXvXvXvXvXvXvXvXvXvXvXvXvXvXvXvXvXvXvXvXvXvXvX",
"vXvXvXvXvXvXvXvXvXvXvXvXvXvXvXvXvXvXvXvXvXvXvXvXvXvXvXvXvXvXvXvXvXvXvXvXvXvXvXvXvXvXvXvXvXvXvXvXvXvXvXvXvXvXvXvXvXvXvXvXvXvXvXvX",
"vXvXvXvXvXvXvXvXvXvXvXvXvXvXvXvXvXvXvXvXvXvXvXvXvXvXvXvXvXvXvXvXvXvXvXvXvXvXvXvXvXvXvXvXvXvXvXvXvXvXvXvXvXvXvXvXvXvXvXvXvXvXvXvX",
"vXvXvXvXvXvXvXvXvXvXvXvXvXvXvXvXvXvXvXvXvXvXvXvXvXvXvXvXvXvXvXvXvXvXvXvXvXvXvXvXvXvXvXvXvXvXvXvXvXvXvXvXvXvXvXvXvXvXvXvXvXvXvXvX",
"vXvXvXvXvXvXvXvXvXvXvXvXvXvXvXvXvXvXvXvXvXvXvXvXvXvXvXvXvXvXvXvXvXvXvXvXvXvXvXvXvXvXvXvXvXvXvXvXvXvXvXvXvXvXvXvXvXvXvXvXvXvXvXvX",
"vXvXvXvXvXvXvXvXvXvXvXvXvXvXvXvXvXvXvXvXvXvXvXvXvXvXvXvXvXvXvXvXvXvXvXvXvXvXvXvXvXvXvXvXvXvXvXvXvXvXvXvXvXvXvXvXvXvXvXvXvXvXvXvX",
"vXvXvXvXvXvXvXvXvXvXvXvXvXvXvXvXvXvXvXvXvXvXvXvXvXo & e m R ( ) ) ( R m e & o vXvXvXvXvXvXvXvXvXvXvXvXvXvXvXvXvXvXvXvXvXvXvXvXvX",
"vXvXvXvXvXvXvXvXvXvXvXvXvXvXvXvXvXvXvXvXvXvXo 0 R s.{.<X3X6X6X6X6X6X6X3X<X{.s.R 0 o vXvXvXvXvXvXvXvXvXvXvXvXvXvXvXvXvXvXvXvXvXvX",
"vXvXvXvXvXvXvXvXvXvXvXvXvXvXvXvXvXvXvXvX* m s..X5X6X5X5X5X6X6X5X6X5X6X5X6X6X6X6X.Xs.M @ vXvXvXvXvXvXvXvXvXvXvXvXvXvXvXvXvXvXvXvX",
"vXvXvXvXvXvXvXvXvXvXvXvXvXvXvXvXvXvX* M l.3X6X5X5X5X5X5X5X5X5X5X5X5X5X5X5X5X5X5X6X6X3Xl.M o vXvXvXvXvXvXvXvXvXvXvXvXvXvXvXvXvXvX",
"vXvXvXvXvXvXvXvXvXvXvXvXvXvXvXvXvX0 i.1X6X5X5X5X5X5X5X5X5X5X5X5X5X3X5X5X5X5X9X5X5X5X5X5X2Xi.0 vXvXvXvXvXvXvXvXvXvXvXvXvXvXvXvXvX",
"vXvXvXvXvXvXvXvXvXvXvXvXvXvXvXo C |.5X5X5X4X4X5X5X5X5X4X5X5X4X5X5X5X5X5X4X5X5X5X4X4X5X5X5X5X|.N o vXvXvXvXvXvXvXvXvXvXvXvXvXvXvX",
"vXvXvXvXvXvXvXvXvXvXvXvXvXvX@ ( 2X5X4X4X5X5X4X5X4X5X9X5X4X5X4X4X4X4X5X4X4X5X9X5X4X4X4X4X5X4X5X<X( * vXvXvXvXvXvXvXvXvXvXvXvXvXvX",
"vXvXvXvXvXvXvXvXvXvXvXvXvX$ ' 9X4X4X4X4X9X9X9X4X4X4X9X4X4X4X4X4X4X4X4X4X9X4X5X4X4X4X4X4X4X4X4X4X3X' $ vXvXvXvXvXvXvXvXvXvXvXvXvX",
"vXvXvXvXvXvXvXvXvXvXvXvX@ ' 9X4X4X4X4X9X9X9X9X9X9X9X4X4X9X9X9X9X4X9X9X4X9X9X9X4X4X4X4X4X4X9X4X4X4X9X4.@ vXvXvXvXvXvXvXvXvXvXvXvX",
"vXvXvXvXvXvXvXvXvXvXvXo ( 8X9X9X9X9X4X4X9X9X3X9X9X3X8X3X9X9X3X3X3X9X9X9X9X4X4X9X9X9X9X9X9X9X9X9X9X4X9X_ o vXvXvXvXvXvXvXvXvXvXvX",
"vXvXvXvXvXvXvXvXvXvXvXC 2X9X9X9X9X8X8X9X8X}.u.u.u.u.u.u.u.u.u.u.u.d.]. X2X4X7X2X8X8X8X4X8X8X4X8X8X9X9XXXC vXvXvXvXvXvXvXvXvXvXvX",
"vXvXvXvXvXvXvXvXvXvX0 }.8X8X8X8X8X8X8X8X2X( * g g h g g f f f d i = # q ~ N.XX.X;X8X8X8X8X8X8X8X8X8X8X9X}.0 vXvXvXvXvXvXvXvXvXvX",
"vXvXvXvXvXvXvXvXvX$ p.8X8X8X7X7X8X8X7X8XXXW +.gXhXhXhXhXhXhXhXhXfXpX0X@.: # ~ [.;X8X7X7X8X8X7X7X8X7X8X8X8Xp.@ vXvXvXvXvXvXvXvXvX",
"vXvXvXvXvXvXvXvXvXM ;X8X7X7X7X7X7X7X7X7X;XE #.zXcXcXcXcXcXcXcXcXcXxXxXlXaX;.: q j.;X7X7X7X7X7X8X7X7X7X7X7X;XC vXvXvXvXvXvXvXvXvX",
"vXvXvXvXvXvXvXvX$ k.8X8X7X7X7X7X7X7X7X7X;XW #.zXcXcXcXcXcXcXcXcXcXcXcXcXcXlXpXO.< p.;X7X7X,X7X7X7X,X7X7X7X7Xk.$ vXvXvXvXvXvXvXvX",
"vXvXvXvXvXvXvXvXC ;X,X,X,X,X,X,X,X,X,X7XXXE #.zXcXcXcXcXcXcXxXcXcXcXcXcXcXcXxXjX*.& a.;X,X,X7X,X,X7X,X7X,X,X;XC vXvXvXvXvXvXvXvX",
"vXvXvXvXvXvXvX@ a.7X,X,X,X,X,X,X,X,X,X,XXXE #.zXcXcXcXhX1.,.<.1.tXaXlXcXcXcXcXcXjX*.4 N.;X,X,X,X,X,X,X,X,X,X7Xa.@ vXvXvXvXvXvXvX",
"vXvXvXvXvXvXvXt OX,X,X,X,X,X,X,X,X,X,X,X=XL #.zXcXcXxX2.# z z z q 7 l yXlXcXcXcXcXjX@.M OX,X,X,X,X,X,X,X,X,X,XOXt vXvXvXvXvXvXvX",
"vXvXvXvXvXvXvX! ,X>X,X>X,X,X-X,X,X>X>X,X=XE #.zXcXcXxX,.z Z.oXoXZ.g.Q 4 %.hXcXcXcXcXaXf 4.-X>X>X>X>X,X,X>X,X>X,X! vXvXvXvXvXvXvX",
"vXvXvXvXvXvX@ g.,X-X>X>X>X>X>X>X>X>X>X>X=XQ #.zXcXcXxX,.> W _ c.=X@Xu.z . l gXcXcXcXzX1.t oX>X>X>X>X-X>X>X>X>X>Xa.@ vXvXvXvXvXvX",
"vXvXvXvXvXvX3 W.>X-X-X-X-X-X-X-X>X-X-X>X@XQ #.zXcXcXxX<.  k h z oXC.0 k h   @.lXcXcXcXgXg 5.=X>X-X>X>X-X-X>X>X>XoX3 vXvXvXvXvXvX",
"vXvXvXvXvXvXu @X-X-X:X-X-X-X-X-X-X:X-X-X@XL #.zXcXcXxX<.  #.uX8 ` ! g uXl r 4 wXxXcXcXzX-.n OX-X:X-X:X-X:X:X-X:X@Xu vXvXvXvXvXvX",
"vXvXvXvXvXvXC :X:X:X:X*X:X:X:X*X:X:X-X:X@XL $.zXcXcXxX<.# ; yX-.> & 2.wX3 f.! j jXcXcXcXuX0 C.:X:X:X:X:X:X:X:X:X:XC vXvXvXvXvXvX",
"vXvXvXvXvXvX] :X:X*X*X*X:X*X:X*X#XW.c.c.x.n O.dXhXgXfX=.q q o.iXd k iXh n f.4.2 iXcXcXcXgXp w.:X*X:X*X*X*X*X*X*X:X! vXvXvXvXvXvX",
"vXvXvXvXvXvX} :X*X*X*X*X*X*X*X*X&X/ , , , O o d d d g * X # @ qXtXyX>.X > , , . <.xXcXcXjXj X.&X*X*X*X*X*X*X*X*X*X} vXvXvXvXvXvX",
"vXvXvXvXvXvXX.:X*X*X*X*X*X&X*X*X$XB.f.f.f.n k iXpXpXpX%.q w.V j gXaXd ] f.f.f.z &.zXcXcXlXl ! &X%X*X*X*X*X*X*X*X*XX.vXvXvXvXvXvX",
"vXvXvXvXvXvX| *X%X%X%X%X%X%X%X%X%X+X~.~.V.Z @.jXlXlXlX:.w B.} 8 fXpX; 9.~.~.V.B $.zXcXcXlXo.! $X%X%X%X%X%X%X%X%X*X6.vXvXvXvXvXvX",
"vXvXvXvXvXvX{ *X%X%X%X%X%X%X$X%X$X9.y y r > = l +.+.l : O y # *.pXpX@.> u w y + -.zXcXcXkXk ^ +X&X$X%X%X%X%X%X%X%X} vXvXvXvXvXvX",
"vXvXvXvXvXvX] %X$X$X$X$X$X$X$X$X+Xe.Q Q L 5 d ;.:.:.:.k > 1 i uXO.%.yX= y L V O wXcXcXcXjXg 8.$X$X%X$X$X$X$X$X%X%X] vXvXvXvXvXvX",
"vXvXvXvXvXvXC $X/.$X/.$X/.$X$X/.$X^.!.!.Q.V #.kXzXxXlX,., 3 ,.wX@ - yX*.q z.8.i sXcXcXcXaX7 e./././.$X/.$X/./././.V vXvXvXvXvXvX",
"vXvXvXvXvXvXc ^./.$X'./././././.`.$X'.$X!.Z #.zXcXcXxX<.  k iXj v x +.iXf L w &.lXcXcXxXqX, n.$X/.$X/./././././.^.c vXvXvXvXvXvX",
"vXvXvXvXvXvX4 T.'.'.'.'.'.`.'./.`./.'.`.!.V #.zXcXcXxX<.  %.*.3 t.q.2 ;.+.. d aXcXcXcXlXO.B Q.'././.'.'././.'.'.m.4 vXvXvXvXvXvX",
"vXvXvXvXvXvX$ t.'.`.'.'.`.`.`.`.`.`.`.`.Q.V #.zXcXcXxX<.O 6 t { Q.m.I 4 @ * tXzXcXcXcXiX- q.!.`.^./.`.`.`.`.`.'.t.% vXvXvXvXvXvX",
"vXvXvXvXvXvXvXI `.`./.^.!.`.^.^.^.`.!.`._.Z #.zXcXcXxX,.y v.n.m.!.m.9.y 8 eXlXcXcXcXjX+.x m.^.^.^.^.^.^.^.`.^.`.] vXvXvXvXvXvXvX",
"vXvXvXvXvXvXvXa )._.!._.`._.`.`._._.`._.Q.V #.zXcXcXxX,., { 6.{ I x 2 o.iXzXcXcXcXxX2.% r._._._._.`.`._.`.`.`.Q.a vXvXvXvXvXvXvX",
"vXvXvXvXvXvXvX- r.`._._._._.).`._._.).`.(.b #.zXcXcXcXiXj d f g k *.uXjXxXcXcXcXxXuX; I T._.!._.)._.)._.).)._.r.- vXvXvXvXvXvXvX",
"vXvXvXvXvXvXvXvXF ).).).).).).).).)._.).m.V #.zXcXcXcXxXjXhXgXhXjXlXxXcXcXcXcXxXiX8 v I.).).).)._.).)._.).).).H vXvXvXvXvXvXvXvX",
"vXvXvXvXvXvXvXvX7 y.).).).).).).).).).).(.b #.zXcXcXcXcXcXcXcXcXcXcXcXcXcXcXlXrX: x y.(.).).).).).).).).).).y.7 vXvXvXvXvXvXvXvX",
"vXvXvXvXvXvXvXvXvXH (.(.(.).(.(.(.(.(.(.T.b #.zXcXcXcXcXcXcXcXcXcXcXcXcXzXaX$.$ b y.T.(.(.).(.(.(.).(.).(.(.H vXvXvXvXvXvXvXvXvX",
"vXvXvXvXvXvXvXvXvX7 0.).(.(.(.(.(.(.(.(.Y.b #.lXxXcXcXxXcXcXxXxXxXzXhXuX%.= > T I.T.(.(.(.(.(.(.(.(.(.(.).0.- vXvXvXvXvXvXvXvXvX",
"vXvXvXvXvXvXvXvXvXvXa L.(.(.(.T.(.(.(.(.Y.D i ;.>.>.>.>.:.:.>.;.%.l 8 o , J r.U.T.T.(.(.T.(.(.(.E.(.(.(.U.a vXvXvXvXvXvXvXvXvXvX",
"vXvXvXvXvXvXvXvXvXvX: K Y.T.T.T.T.(.T.(.U.7.y 6 6 6 6 6 6 6 6 6 6 y D ..G.H.L.T.T.T.T.T.T.T.Y.T.(.(.(.E.J : vXvXvXvXvXvXvXvXvXvX",
"vXvXvXvXvXvXvXvXvXvXvX;  .T.Y.Y.Y.Y.Y.Y.Y.U.H.H.H.H.H.H.H.H.H.H.H.H.U.R.Y.Y.E.(.Y.Y.Y.Y.Y.Y.T.Y.E.(.E.T 8 vXvXvXvXvXvXvXvXvXvXvX",
"vXvXvXvXvXvXvXvXvXvXvXvX7 7.(.Y.Y.Y.Y.Y.Y.Y.Y.Y.Y.Y.Y.E.E.Y.Y.Y.Y.Y.Y.Y.Y.E.E.E.Y.Y.Y.Y.Y.Y.Y.Y.E.E.7.7 vXvXvXvXvXvXvXvXvXvXvXvX",
"vXvXvXvXvXvXvXvXvXvXvXvXvX8 7.R.Y.R.E.E.E.E.E.E.R.E.R.Y.E.E.E.R.R.Y.E.E.E.E.R.E.E.Y.E.E.E.E.E.R.E.7.7 vXvXvXvXvXvXvXvXvXvXvXvXvX",
"vXvXvXvXvXvXvXvXvXvXvXvXvXvX9 T R.R.R.E.R.R.R.R.E.R.R.R.R.R.R.R.R.R.R.R.R.R.R.R.R.R.R.R.R.R.R.R.T 9 vXvXvXvXvXvXvXvXvXvXvXvXvXvX",
"vXvXvXvXvXvXvXvXvXvXvXvXvXvXvX8 K K.R.P.R.R.P.R.P.R.R.R.R.P.P.R.P.R.P.R.P.P.P.R.P.R.R.P.R.R.K.K 8 vXvXvXvXvXvXvXvXvXvXvXvXvXvXvX",
"vXvXvXvXvXvXvXvXvXvXvXvXvXvXvXvXd a D.P.P.P.P.P.P.P.P.P.P.P.P.K.P.P.P.P.P.P.P.P.P.P.P.R.P.S.a d vXvXvXvXvXvXvXvXvXvXvXvXvXvXvXvX",
"vXvXvXvXvXvXvXvXvXvXvXvXvXvXvXvXvXvX8 G F.P.P.K.P.P.P.P.P.P.P.P.P.P.P.P.P.P.P.P.P.P.P.F.G 8 vXvXvXvXvXvXvXvXvXvXvXvXvXvXvXvXvXvX",
"vXvXvXvXvXvXvXvXvXvXvXvXvXvXvXvXvXvXvXh 9 G S.K.P.K.P.K.K.P.P.P.K.K.P.K.K.P.P.P.K.S.G 9 h vXvXvXvXvXvXvXvXvXvXvXvXvXvXvXvXvXvXvX",
"vXvXvXvXvXvXvXvXvXvXvXvXvXvXvXvXvXvXvXvXvXh f S Y S.J.P.P.K.P.P.P.P.P.P.K.J.S.U a p h vXvXvXvXvXvXvXvXvXvXvXvXvXvXvXvXvXvXvXvXvX",
"vXvXvXvXvXvXvXvXvXvXvXvXvXvXvXvXvXvXvXvXvXvXvXvXh d s S G U T T T T U G S s d h vXvXvXvXvXvXvXvXvXvXvXvXvXvXvXvXvXvXvXvXvXvXvXvX",
"vXvXvXvXvXvXvXvXvXvXvXvXvXvXvXvXvXvXvXvXvXvXvXvXvXvXvXvXj h h h h h h j vXvXvXvXvXvXvXvXvXvXvXvXvXvXvXvXvXvXvXvXvXvXvXvXvXvXvXvX",
"vXvXvXvXvXvXvXvXvXvXvXvXvXvXvXvXvXvXvXvXvXvXvXvXvXvXvXvXvXvXvXvXvXvXvXvXvXvXvXvXvXvXvXvXvXvXvXvXvXvXvXvXvXvXvXvXvXvXvXvXvXvXvXvX",
"vXvXvXvXvXvXvXvXvXvXvXvXvXvXvXvXvXvXvXvXvXvXvXvXvXvXvXvXvXvXvXvXvXvXvXvXvXvXvXvXvXvXvXvXvXvXvXvXvXvXvXvXvXvXvXvXvXvXvXvXvXvXvXvX",
"vXvXvXvXvXvXvXvXvXvXvXvXvXvXvXvXvXvXvXvXvXvXvXvXvXvXvXvXvXvXvXvXvXvXvXvXvXvXvXvXvXvXvXvXvXvXvXvXvXvXvXvXvXvXvXvXvXvXvXvXvXvXvXvX",
"vXvXvXvXvXvXvXvXvXvXvXvXvXvXvXvXvXvXvXvXvXvXvXvXvXvXvXvXvXvXvXvXvXvXvXvXvXvXvXvXvXvXvXvXvXvXvXvXvXvXvXvXvXvXvXvXvXvXvXvXvXvXvXvX",
"vXvXvXvXvXvXvXvXvXvXvXvXvXvXvXvXvXvXvXvXvXvXvXvXvXvXvXvXvXvXvXvXvXvXvXvXvXvXvXvXvXvXvXvXvXvXvXvXvXvXvXvXvXvXvXvXvXvXvXvXvXvXvXvX"
};
